# xmcd
#
# Track frame offsets:
#	150
#	14524
#	32611
#	43289
#	59376
#	75498
#
# Disc length: 1224 seconds
#
# Revision: 0
# Processed by: cddbd v1.5PL3 Copyright (c) Steve Scherf et al.
# Submitted via: audiograbber 1.81.02
#
DISCID=4504c606
DTITLE=Stafan Zier - Music in a world of differences
DYEAR=2003
DGENRE=Gospel
TTITLE0=Peace like a river
TTITLE1=My lord, what a morning
TTITLE2=Nobody knows the trouble I've seen
TTITLE3=Swing low, sweet chariot
TTITLE4=Oh Happy Day
TTITLE5=Amazing Grace
EXTD=
EXTT0=
EXTT1=
EXTT2=
EXTT3=
EXTT4=
EXTT5=
PLAYORDER=
